<?xml version="1.0" standalone="no"?>
<!DOCTYPE svg PUBLIC "-//W3C//DTD SVG 20010904//EN"
 "http://www.w3.org/TR/2001/REC-SVG-20010904/DTD/svg10.dtd">
<svg version="1.0" xmlns="http://www.w3.org/2000/svg"
 width="300.000000pt" height="168.000000pt" viewBox="0 0 300.000000 168.000000"
 preserveAspectRatio="xMidYMid meet">

<g transform="translate(0.000000,168.000000) scale(0.100000,-0.100000)"
fill="#000000" stroke="none">
<path d="M890 695 l0 -145 25 0 25 0 1 123 0 122 43 -120 c41 -114 45 -120 71
-120 26 0 30 6 71 120 l43 120 0 -122 1 -123 25 0 25 0 0 145 0 145 -44 0 -44
0 -37 -110 c-20 -60 -38 -110 -40 -110 -1 0 -20 50 -41 110 l-38 110 -43 0
-43 0 0 -145z"/>
<path d="M1365 828 c-3 -7 -25 -73 -49 -145 l-45 -133 29 0 c21 0 29 6 34 25
6 24 10 25 75 25 65 0 69 -1 75 -25 5 -19 13 -25 32 -25 17 0 24 5 21 13 -2 6
-24 72 -48 145 l-43 132 -39 0 c-21 0 -40 -6 -42 -12z m70 -108 c10 -30 20
-61 23 -67 3 -9 -10 -13 -47 -13 -35 0 -51 4 -51 13 0 27 43 138 50 130 4 -4
16 -33 25 -63z"/>
<path d="M1540 815 c0 -22 4 -25 40 -25 l40 0 0 -120 0 -120 25 0 25 0 0 120
0 120 45 0 c41 0 45 2 45 25 l0 25 -110 0 -110 0 0 -25z"/>
<path d="M1820 696 l0 -146 25 0 c23 0 25 3 25 50 l0 50 38 0 c36 0 40 -3 62
-50 20 -43 28 -50 52 -50 l28 0 -25 50 c-29 58 -30 60 -10 60 37 0 49 110 17
150 -16 20 -30 23 -115 28 l-97 5 0 -147z m178 56 c5 -48 -12 -62 -74 -62
l-54 0 0 50 0 51 63 -3 62 -3 3 -33z"/>
<path d="M2130 695 l0 -145 25 0 25 0 0 145 0 145 -25 0 -25 0 0 -145z"/>
<path d="M2260 834 c0 -4 18 -35 40 -70 22 -35 40 -68 40 -74 0 -6 -13 -30
-29 -53 -15 -23 -33 -52 -40 -64 -11 -21 -10 -23 16 -23 24 0 34 11 71 69 23
38 42 72 42 75 0 3 -20 37 -45 76 -36 55 -51 70 -70 70 -14 0 -25 -3 -25 -6z"/>
<path d="M2424 815 c-14 -22 -14 -26 -1 -46 15 -21 16 -21 41 20 32 50 32 51
1 51 -15 0 -31 -9 -41 -25z"/>
<path d="M2546 769 c25 -39 43 -77 40 -85 -3 -8 -21 -39 -41 -69 -19 -31 -35
-58 -35 -60 0 -3 11 -5 25 -5 20 0 34 14 71 70 l46 71 -47 74 c-41 66 -50 75
-76 75 l-29 0 46 -71z"/>
<path d="M2672 814 c-9 -18 -9 -31 -2 -45 6 -10 12 -19 14 -19 4 0 56 78 56
85 0 3 -13 5 -28 5 -21 0 -32 -7 -40 -26z"/>
<path d="M727 799 c7 -7 15 -10 18 -7 3 3 -2 9 -12 12 -14 6 -15 5 -6 -5z"/>
<path d="M309 783 c-13 -16 -12 -17 4 -4 9 7 17 15 17 17 0 8 -8 3 -21 -13z"/>
<path d="M410 756 c0 -2 8 -10 18 -17 15 -13 16 -12 3 4 -13 16 -21 21 -21 13z"/>
<path d="M660 756 c0 -2 8 -10 18 -17 15 -13 16 -12 3 4 -13 16 -21 21 -21 13z"/>
<path d="M273 719 c3 -8 31 -52 63 -97 l58 -81 44 61 44 61 20 -32 20 -31 -41
-55 c-23 -30 -41 -57 -41 -60 0 -4 29 -46 63 -95 l64 -88 65 91 65 91 -43 59
-44 59 33 47 c49 68 49 66 4 66 -32 0 -47 -6 -61 -24 l-20 -24 -18 23 c-26 32
-99 32 -132 1 l-24 -22 -18 23 c-15 17 -27 22 -53 20 -20 -2 -38 2 -43 10 -8
10 -9 9 -5 -3z m315 -262 l-21 -29 -18 23 c-23 30 -23 34 -2 66 l17 25 22 -28
23 -28 -21 -29z"/>
<path d="M2672 614 c-17 -36 0 -64 40 -64 l30 0 -17 28 c-43 66 -41 64 -53 36z"/>
<path d="M2420 610 c-15 -28 7 -60 43 -60 l28 0 -23 40 c-26 45 -33 48 -48 20z"/>
</g>
</svg>
